# xmcd
#
# Track frame offsets: 
#        183
#        24875
#        52360
#        72520
#        100403
#        117645
#        176850
#        210968
#        231595
#        265445
#        285085
#        302453
#
# Disc length: 4237 seconds
#
# Revision: 15
# Processed by: cddbd v1.5.2PL0 Copyright (c) Steve Scherf et al.
# Submitted via: ExactAudioCopy v0.99pb4
#
DISCID=b2108b0c
DTITLE=Iron Maiden - Live After Death
DYEAR=1985
DGENRE=Metal
TTITLE0=Aces High
TTITLE1=2 Minutes To Midnight
TTITLE2=The Trooper
TTITLE3=Revelations
TTITLE4=Flight Of Icarus
TTITLE5=Rime Of The Ancient Mariner
TTITLE6=Powerslave
TTITLE7=The Number Of The Beast
TTITLE8=Hallowed Be Thy Name
TTITLE9=Iron Maiden
TTITLE10=Run To The Hills
TTITLE11=Running Free
EXTD=
EXTT0=
EXTT1=
EXTT2=
EXTT3=
EXTT4=
EXTT5=
EXTT6=
EXTT7=
EXTT8=
EXTT9=
EXTT10=
EXTT11=
PLAYORDER=
